<svg id="Capa_1" enable-background="new 0 0 512 512" height="512" viewBox="0 0 512 512" width="512" xmlns="http://www.w3.org/2000/svg"><g><g><path d="m474.711 418.177c15.071 0 27.289-12.218 27.289-27.289v-269.776c0-15.071-12.218-27.289-27.289-27.289h-437.422c-15.071 0-27.289 12.218-27.289 27.289v269.775c0 15.071 12.218 27.289 27.289 27.289h437.422z" fill="#ffce62"/></g><g><path d="m305.714 147.892h124.412v116.479h-124.412z" fill="#eaf0f0"/></g><g><path d="m234.825 153.935 3.932 1.553v109.199c-24.387-9.633-50.594-10.907-74.552.978v-109.2c21.926-10.914 47.926-11.495 70.62-2.53z" fill="#eaf0f0"/></g><g><path d="m93.585 153.935-3.932 1.553v109.199c24.387-9.633 50.594-10.907 74.552.978v-109.2c-21.926-10.914-47.926-11.495-70.62-2.53z" fill="#eaf0f0"/></g><g><path d="m70.892 314.784h370.216v49.324h-370.216z" fill="#ff7e96"/></g><g><path d="m474.711 83.823h-437.422c-20.561 0-37.289 16.728-37.289 37.289v269.775c0 20.561 16.728 37.289 37.289 37.289h175.049c5.523 0 10-4.477 10-10s-4.477-10-10-10h-175.049c-9.533 0-17.289-7.756-17.289-17.289v-269.775c0-9.533 7.756-17.289 17.289-17.289h437.422c9.533 0 17.289 7.756 17.289 17.289v269.775c0 9.533-7.756 17.289-17.289 17.289h-174.09c-5.523 0-10 4.477-10 10s4.477 10 10 10h174.09c20.561 0 37.289-16.728 37.289-37.289v-269.775c0-20.561-16.728-37.289-37.289-37.289z"/><path d="m265.23 414.35c-2.097-5.031-8.016-7.498-13.06-5.41-5.031 2.082-7.48 8.037-5.4 13.06 2.086 5.038 8.012 7.49 13.05 5.41 5.054-2.088 7.475-8.018 5.41-13.06z"/><path d="m93.327 273.988c20.81-8.217 43.191-9.985 63.988-.528 2.245 1.022 4.343 2.206 6.891 2.206 2.547 0 4.646-1.184 6.892-2.206 20.813-9.465 43.181-7.689 63.987.528 3.08 1.217 6.561.83 9.298-1.032s4.375-4.958 4.375-8.269v-109.199c0-4.104-2.508-7.792-6.326-9.301l-3.932-1.553c-24.193-9.557-51.178-9.239-74.294.811-23.118-10.05-50.101-10.367-74.294-.811l-3.932 1.553c-3.817 1.508-6.326 5.196-6.326 9.301v109.199c0 3.311 1.638 6.406 4.375 8.269 2.737 1.86 6.217 2.25 9.298 1.032zm135.43-111.655v88.222c-18.027-5.045-37.062-4.893-54.552.408v-88.03c17.056-6.802 36.622-7.027 54.552-.6zm-129.104 0c17.928-6.426 37.493-6.203 54.552.601v88.029c-17.665-5.355-36.797-5.376-54.552-.408z"/><path d="m440.126 147.892c0-5.523-4.477-10-10-10h-27.043c-5.523 0-10 4.477-10 10s4.477 10 10 10h17.043v19.48c0 5.523 4.477 10 10 10s10-4.477 10-10z"/><path d="m430.126 224.95c-5.523 0-10 4.477-10 10v19.421h-17.043c-5.523 0-10 4.477-10 10s4.477 10 10 10h27.043c5.523 0 10-4.477 10-10v-29.421c0-5.523-4.477-10-10-10z"/><path d="m332.757 137.892h-27.043c-5.523 0-10 4.477-10 10v26.977c0 5.523 4.477 10 10 10s10-4.477 10-10v-16.977h17.043c5.523 0 10-4.477 10-10s-4.477-10-10-10z"/><path d="m295.714 264.371c0 5.523 4.477 10 10 10h27.043c5.523 0 10-4.477 10-10s-4.477-10-10-10h-17.043v-19.421c0-5.523-4.477-10-10-10s-10 4.477-10 10z"/><path d="m364.683 182.773c0 5.523 4.477 10 10 10h9.78v36.716c0 5.523 4.477 10 10 10s10-4.477 10-10v-46.716c0-5.523-4.477-10-10-10h-19.78c-5.523 0-10 4.477-10 10z"/><path d="m351.377 219.489v-5.824c0-5.523-4.477-10-10-10s-10 4.477-10 10v15.824c0 5.523 4.477 10 10 10h18.5c5.523 0 10-4.477 10-10s-4.477-10-10-10z"/><path d="m350.61 178.95c-2.096-5.03-8.015-7.499-13.06-5.41-5.032 2.084-7.494 8.027-5.41 13.06 2.085 5.034 8.031 7.487 13.06 5.41 5.027-2.076 7.503-8.036 5.41-13.06z"/><path d="m60.892 314.784v49.324c0 5.523 4.477 10 10 10h370.217c5.523 0 10-4.477 10-10v-49.324c0-5.523-4.477-10-10-10h-370.217c-5.523 0-10 4.477-10 10zm20 10h350.217v29.324h-350.217z"/></g></g></svg>