<svg height="512" viewBox="0 0 512 512" width="512" xmlns="http://www.w3.org/2000/svg"><g id="Flat"><rect fill="#593528" height="432" rx="16" width="464" x="24" y="24"/><g fill="#844e3a"><path d="m272 224h400a16 16 0 0 1 16 16v16a0 0 0 0 1 0 0h-432a0 0 0 0 1 0 0v-16a16 16 0 0 1 16-16z" transform="matrix(0 1 -1 0 712 -232)"/><path d="m-176 224h432a0 0 0 0 1 0 0v16a16 16 0 0 1 -16 16h-400a16 16 0 0 1 -16-16v-16a0 0 0 0 1 0 0z" transform="matrix(0 1 -1 0 280 200)"/><path d="m56 424h400v32h-400z"/><path d="m40 24h432a16 16 0 0 1 16 16v16a0 0 0 0 1 0 0h-464a0 0 0 0 1 0 0v-16a16 16 0 0 1 16-16z"/></g><path d="m24 56h32v16h-32z" fill="#784533"/><path d="m456 56h32v16h-32z" fill="#784533"/><g fill="#513024"><path d="m56 56h400v32h-400z"/><path d="m56 184h400v32h-400z"/><path d="m56 312h400v32h-400z"/></g><path d="m56 280h400v32h-400z" fill="#7d4a38"/><path d="m56 152h400v32h-400z" fill="#7d4a38"/><path d="m88 88h32v64h-32z" fill="#348ed8"/><path d="m184 104h32v48h-32z" fill="#348ed8"/><path d="m248 104h32v48h-32z" fill="#348ed8"/><path d="m280 104h32v48h-32z" fill="#426887"/><path d="m56 88h32v64h-32z" fill="#ffb431"/><path d="m120 104h32v48h-32z" fill="#de5540"/><path d="m216 88h32v64h-32z" fill="#de5540"/><path d="m312 88h32v64h-32z" fill="#de5540"/><path d="m366.048 88-22.048 10.143 25.952 53.857 22.048-10.143z" fill="#426887"/><path d="m56 216h32v64h-32z" fill="#348ed8"/><path d="m88 216h32v64h-32z" fill="#ffb431"/><path d="m120 232h32v48h-32z" fill="#426887"/><path d="m152 216h32v64h-32z" fill="#348ed8"/><path d="m184 232h32v48h-32z" fill="#de5540"/><path d="m216 232h32v48h-32z" fill="#348ed8"/><path d="m56 344h32v80h-32z" fill="#426887"/><path d="m88 344h32v80h-32z" fill="#de5540"/><path d="m184 360h32v64h-32z" fill="#de5540"/><path d="m216 344h32v80h-32z" fill="#348ed8"/><path d="m248 344h32v80h-32z" fill="#ffb431"/><path d="m309.398 336-29.398 13.946 34.602 74.054 29.398-13.946z" fill="#de5540"/><path d="m149.398 336-29.398 13.946 34.602 74.054 29.398-13.946z" fill="#426887"/><path d="m424 248h-40a16 16 0 0 1 -16-16v-16h-16l12.353-37.06a16 16 0 0 1 15.179-10.94h28.468a16 16 0 0 1 16 16z" fill="#fdc8a2"/><path d="m384 192h16v16h-16z" fill="#395d7b"/><path d="m424 200-24-16h-32a16 16 0 0 1 -16-16 16 16 0 0 1 16-16h32a24 24 0 0 1 24 24z" fill="#426887"/><path d="m360 344v112h32 32v-112z" fill="#426887"/><path d="m384 368h16v96h-16z" fill="#395d7b"/><path d="m355.314 488h36.686v-32h-32l-12.686 12.686a11.314 11.314 0 0 0 -3.314 8 11.313 11.313 0 0 0 11.314 11.314z" fill="#593528"/><path d="m387.314 488h36.686v-32h-32l-12.686 12.686a11.314 11.314 0 0 0 -3.314 8 11.313 11.313 0 0 0 11.314 11.314z" fill="#6a3f2e"/><path d="m424 248h-64a30.739 30.739 0 0 0 -29.821 23.283l-2.179 8.717-8-32h-32l10.85 48.826a29.6 29.6 0 0 0 28.889 23.174 29.594 29.594 0 0 0 29.019-23.79l3.242-16.21v64h64v16h32v-81.261a30.739 30.739 0 0 0 -30.739-30.739z" fill="#d6513c"/><path d="m216 152h64a8 8 0 0 1 8 8v80a8 8 0 0 1 -8 8h-64a0 0 0 0 1 0 0v-96a0 0 0 0 1 0 0z" fill="#ffb431"/><path d="m320 248-5.772-34.63a16 16 0 0 0 -15.782-13.37h-26.446v32h12l4 16z" fill="#fdc8a2"/><path d="m424 360h32a0 0 0 0 1 0 0v32a0 0 0 0 1 0 0h-16a16 16 0 0 1 -16-16v-16a0 0 0 0 1 0 0z" fill="#fdc8a2"/><path d="m424 248a32 32 0 0 1 32 32v80a0 0 0 0 1 0 0h-32a0 0 0 0 1 0 0v-112a0 0 0 0 1 0 0z" fill="#de5540"/></g></svg>