<svg height="512" viewBox="0 0 128 128" width="512" xmlns="http://www.w3.org/2000/svg"><g><rect fill="#f9cc4e" height="74.905" rx="8.069" width="115.387" x="6.306" y="26.547"/><path d="m121.69 34.62v9.46h-115.38v-9.46a8.066 8.066 0 0 1 8.07-8.07h99.24a8.066 8.066 0 0 1 8.07 8.07z" fill="#6d7a84"/><path d="m20.021 57.797h29.941v29.941h-29.941z" fill="#e2e8ed"/><circle cx="34.991" cy="69.833" fill="#f95050" r="5.255"/><path d="m27.285 87.738v-4.944a7.706 7.706 0 0 1 7.706-7.706 7.707 7.707 0 0 1 7.709 7.706v4.944z" fill="#f95050"/><path d="m99.375 26.547v31.25l-8.503-8.503-8.503 8.503v-31.25z" fill="#4ec4b5"/><g fill="#142850"><path d="m32.244 28.3h4.5a1.75 1.75 0 0 0 0-3.5h-4.5a1.75 1.75 0 0 0 0 3.5z"/><path d="m113.625 24.8h-68.225a1.75 1.75 0 0 0 0 3.5h35.22v14.033h-72.563v-7.716a6.326 6.326 0 0 1 6.318-6.32h9.632a1.75 1.75 0 0 0 0-3.5h-9.632a9.83 9.83 0 0 0 -9.818 9.82v58.766a9.83 9.83 0 0 0 9.818 9.82h81.731a1.75 1.75 0 0 0 0-3.5h-81.731a6.326 6.326 0 0 1 -6.318-6.32v-47.55h72.562v11.967a1.75 1.75 0 0 0 2.987 1.238l7.266-7.265 7.266 7.265a1.75 1.75 0 0 0 2.987-1.238v-11.967h18.818v47.55a6.326 6.326 0 0 1 -6.318 6.32h-9.841a1.75 1.75 0 0 0 0 3.5h9.841a9.83 9.83 0 0 0 9.818-9.82v-58.766a9.83 9.83 0 0 0 -9.818-9.817zm-16 28.775-5.516-5.515a1.75 1.75 0 0 0 -2.474 0l-5.516 5.515v-25.275h13.506zm3.5-11.239v-14.036h12.5a6.326 6.326 0 0 1 6.318 6.32v7.716z"/><path d="m20.021 56.047a1.75 1.75 0 0 0 -1.75 1.75v29.941a1.749 1.749 0 0 0 1.75 1.75h29.941a1.749 1.749 0 0 0 1.75-1.75v-29.938a1.75 1.75 0 0 0 -1.75-1.75zm11.465 13.786a3.5 3.5 0 1 1 3.5 3.5 3.509 3.509 0 0 1 -3.5-3.5zm3.5 7a5.963 5.963 0 0 1 5.956 5.956v3.194h-11.907v-3.189a5.963 5.963 0 0 1 5.956-5.956zm13.221 9.15h-3.76v-3.189a9.448 9.448 0 0 0 -4.487-8.03 7.005 7.005 0 1 0 -9.938 0 9.45 9.45 0 0 0 -4.487 8.03v3.194h-3.764v-26.441h26.441z"/><path d="m65.605 89.488h42.374a1.75 1.75 0 0 0 0-3.5h-42.374a1.75 1.75 0 0 0 0 3.5z"/><path d="m65.605 79.473h42.374a1.75 1.75 0 0 0 0-3.5h-42.374a1.75 1.75 0 0 0 0 3.5z"/><path d="m65.605 69.369h42.374a1.75 1.75 0 1 0 0-3.5h-42.374a1.75 1.75 0 0 0 0 3.5z"/></g></g></svg>